<svg width="24" height="24" viewBox="0 0 24 24" fill="none" xmlns="http://www.w3.org/2000/svg">
<path d="M20.5289 5.34021H17.5912C17.3712 4.40068 16.7893 3.55648 15.9434 2.9499C15.0976 2.34332 14.0396 2.01146 12.9477 2.01025L11.0523 2.01025C9.96045 2.01146 8.90241 2.34332 8.05657 2.9499C7.21072 3.55648 6.62878 4.40068 6.40883 5.34021H3.47109C3.21976 5.34021 2.97872 5.42792 2.801 5.58404C2.62328 5.74017 2.52344 5.95191 2.52344 6.1727C2.52344 6.39349 2.62328 6.60524 2.801 6.76136C2.97872 6.91748 3.21976 7.00519 3.47109 7.00519H4.41875V17.8276C4.42025 18.9311 4.91995 19.9891 5.80822 20.7694C6.6965 21.5497 7.90082 21.9887 9.15703 21.99H14.843C16.0992 21.9887 17.3035 21.5497 18.1918 20.7694C19.0801 19.9891 19.5797 18.9311 19.5813 17.8276V7.00519H20.5289C20.7802 7.00519 21.0213 6.91748 21.199 6.76136C21.3767 6.60524 21.4766 6.39349 21.4766 6.1727C21.4766 5.95191 21.3767 5.74017 21.199 5.58404C21.0213 5.42792 20.7802 5.34021 20.5289 5.34021V5.34021ZM11.0523 3.67523H12.9477C13.5355 3.67586 14.1087 3.83622 14.5886 4.1343C15.0686 4.43239 15.4319 4.85362 15.6286 5.34021H8.37142C8.56814 4.85362 8.9314 4.43239 9.41137 4.1343C9.89134 3.83622 10.4645 3.67586 11.0523 3.67523V3.67523ZM17.6859 17.8276C17.6859 18.4899 17.3864 19.1252 16.8533 19.5935C16.3201 20.0619 15.597 20.325 14.843 20.325H9.15703C8.40303 20.325 7.67991 20.0619 7.14675 19.5935C6.61359 19.1252 6.31406 18.4899 6.31406 17.8276V7.00519H17.6859V17.8276Z" fill="white"/>
<path d="M10.4897 16.9562C10.7397 16.9562 10.9796 16.8672 11.1564 16.7087C11.3332 16.5503 11.4325 16.3354 11.4325 16.1114V11.0426C11.4325 10.8185 11.3332 10.6036 11.1564 10.4452C10.9796 10.2868 10.7397 10.1978 10.4897 10.1978C10.2396 10.1978 9.99983 10.2868 9.82302 10.4452C9.64621 10.6036 9.54688 10.8185 9.54688 11.0426V16.1114C9.54688 16.3354 9.64621 16.5503 9.82302 16.7087C9.99983 16.8672 10.2396 16.9562 10.4897 16.9562Z" fill="white"/>
<path d="M14.2709 16.9562C14.521 16.9562 14.7608 16.8672 14.9376 16.7087C15.1144 16.5503 15.2138 16.3354 15.2138 16.1114V11.0426C15.2138 10.8185 15.1144 10.6036 14.9376 10.4452C14.7608 10.2868 14.521 10.1978 14.2709 10.1978C14.0209 10.1978 13.7811 10.2868 13.6043 10.4452C13.4275 10.6036 13.3281 10.8185 13.3281 11.0426V16.1114C13.3281 16.3354 13.4275 16.5503 13.6043 16.7087C13.7811 16.8672 14.0209 16.9562 14.2709 16.9562Z" fill="white"/>
</svg>
