<svg width="90" height="108" viewBox="0 0 90 108" fill="none" xmlns="http://www.w3.org/2000/svg">
<path d="M22.19 30.5601C22.4233 30.1868 22.7733 30.0001 23.24 30.0001H29.68C29.9133 30.0001 30.1 30.0935 30.24 30.2801C30.4267 30.4201 30.52 30.6068 30.52 30.8401V78.1601C30.52 78.3935 30.4267 78.6035 30.24 78.7901C30.1 78.9301 29.9133 79.0001 29.68 79.0001H23.24C23.0067 79.0001 22.7967 78.9301 22.61 78.7901C22.47 78.6035 22.4 78.3935 22.4 78.1601V45.1201C22.4 44.9335 22.3533 44.8401 22.26 44.8401C22.1667 44.8401 22.0733 44.9101 21.98 45.0501L15.89 56.1101C15.6567 56.4835 15.4467 56.6701 15.26 56.6701C15.0733 56.6701 14.8633 56.4835 14.63 56.1101L8.54 45.0501C8.44667 44.9101 8.35333 44.8401 8.26 44.8401C8.16667 44.8401 8.12 44.9335 8.12 45.1201V78.1601C8.12 78.3935 8.02667 78.6035 7.84 78.7901C7.7 78.9301 7.51333 79.0001 7.28 79.0001H0.84C0.606666 79.0001 0.396667 78.9301 0.21 78.7901C0.0700001 78.6035 0 78.3935 0 78.1601V30.8401C0 30.6068 0.0700001 30.4201 0.21 30.2801C0.396667 30.0935 0.606666 30.0001 0.84 30.0001H7.28C7.74667 30.0001 8.09667 30.1868 8.33 30.5601L15.12 42.5301C15.26 42.7168 15.4 42.7168 15.54 42.5301L22.19 30.5601Z" fill="black"/>
<path d="M41.586 38.3301C40.1394 38.3301 38.9494 37.8635 38.016 36.9301C37.0827 35.9968 36.616 34.8068 36.616 33.3601C36.616 31.9135 37.0827 30.7235 38.016 29.7901C38.9494 28.8568 40.1394 28.3901 41.586 28.3901C43.0327 28.3901 44.1994 28.8568 45.086 29.7901C46.0194 30.7235 46.486 31.9135 46.486 33.3601C46.486 34.8068 46.0194 35.9968 45.086 36.9301C44.1527 37.8635 42.986 38.3301 41.586 38.3301ZM38.436 79.0001C38.2027 79.0001 37.9927 78.9301 37.806 78.7901C37.666 78.6035 37.596 78.3935 37.596 78.1601V44.0701C37.596 43.8368 37.666 43.6501 37.806 43.5101C37.9927 43.3235 38.2027 43.2301 38.436 43.2301H44.876C45.1094 43.2301 45.296 43.3235 45.436 43.5101C45.6227 43.6501 45.716 43.8368 45.716 44.0701V78.1601C45.716 78.3935 45.6227 78.6035 45.436 78.7901C45.296 78.9301 45.1094 79.0001 44.876 79.0001H38.436Z" fill="black"/>
<path d="M52.9151 79.0001C52.6817 79.0001 52.4717 78.9301 52.2851 78.7901C52.1451 78.6035 52.0751 78.3935 52.0751 78.1601V30.8401C52.0751 30.6068 52.1451 30.4201 52.2851 30.2801C52.4717 30.0935 52.6817 30.0001 52.9151 30.0001H59.3551C59.5884 30.0001 59.7751 30.0935 59.9151 30.2801C60.1017 30.4201 60.1951 30.6068 60.1951 30.8401V78.1601C60.1951 78.3935 60.1017 78.6035 59.9151 78.7901C59.7751 78.9301 59.5884 79.0001 59.3551 79.0001H52.9151Z" fill="black"/>
<path d="M66.8604 79.0001C66.6271 79.0001 66.4171 78.9301 66.2304 78.7901C66.0904 78.6035 66.0204 78.3935 66.0204 78.1601V30.8401C66.0204 30.6068 66.0904 30.4201 66.2304 30.2801C66.4171 30.0935 66.6271 30.0001 66.8604 30.0001H73.3004C73.5337 30.0001 73.7204 30.0935 73.8604 30.2801C74.0471 30.4201 74.1404 30.6068 74.1404 30.8401V78.1601C74.1404 78.3935 74.0471 78.6035 73.8604 78.7901C73.7204 78.9301 73.5337 79.0001 73.3004 79.0001H66.8604Z" fill="black"/>
<path d="M84.4457 79.1401C82.999 79.1401 81.809 78.6735 80.8757 77.7401C79.9424 76.8068 79.4757 75.6168 79.4757 74.1701C79.4757 72.7235 79.9424 71.5335 80.8757 70.6001C81.809 69.6668 82.999 69.2001 84.4457 69.2001C85.8924 69.2001 87.059 69.6668 87.9457 70.6001C88.879 71.5335 89.3457 72.7235 89.3457 74.1701C89.3457 75.6168 88.879 76.8068 87.9457 77.7401C87.0124 78.6735 85.8457 79.1401 84.4457 79.1401Z" fill="#F46347"/>
<path fill-rule="evenodd" clip-rule="evenodd" d="M4.10938 4H40.1094V20H44.1094V4V0H40.1094H4.10938H0.109375V4V20H4.10938V4ZM4.10938 88H0.109375V104V108H4.10938H40.1094H44.1094V104V88H40.1094V104H4.10938V88Z" fill="black"/>
</svg>
