<svg width="24" height="24" viewBox="0 0 24 24" fill="none" xmlns="http://www.w3.org/2000/svg">
<path d="M9 2H4.5C3.25736 2 2.25 3.03319 2.25 4.30769V8.92308C2.25 10.1976 3.25736 11.2308 4.5 11.2308H9C10.2426 11.2308 11.25 10.1976 11.25 8.92308V4.30769C11.25 3.03319 10.2426 2 9 2Z" fill="black"/>
<path d="M19.5 2H15C13.7574 2 12.75 3.03319 12.75 4.30769V8.92308C12.75 10.1976 13.7574 11.2308 15 11.2308H19.5C20.7426 11.2308 21.75 10.1976 21.75 8.92308V4.30769C21.75 3.03319 20.7426 2 19.5 2Z" fill="black"/>
<path d="M9 12.7695H4.5C3.25736 12.7695 2.25 13.8027 2.25 15.0772V19.6926C2.25 20.9671 3.25736 22.0003 4.5 22.0003H9C10.2426 22.0003 11.25 20.9671 11.25 19.6926V15.0772C11.25 13.8027 10.2426 12.7695 9 12.7695Z" fill="black"/>
<path d="M19.5 12.7695H15C13.7574 12.7695 12.75 13.8027 12.75 15.0772V19.6926C12.75 20.9671 13.7574 22.0003 15 22.0003H19.5C20.7426 22.0003 21.75 20.9671 21.75 19.6926V15.0772C21.75 13.8027 20.7426 12.7695 19.5 12.7695Z" fill="black"/>
</svg>
