<svg width="52" height="52" viewBox="0 0 52 52" fill="none" xmlns="http://www.w3.org/2000/svg">
<g clip-path="url(#clip0_535_10589)">
<path d="M18.4972 0.910018C18.0858 0.286152 17.3208 -0.0037695 16.5992 0.190685L15.1952 0.572018C14.4247 0.758239 13.8787 1.4434 13.8692 2.23602V4.23802L7.44722 8.50202L5.60122 7.72202C4.88078 7.41889 4.0466 7.63542 3.56455 8.25069L2.69788 9.39469C2.23211 9.9794 2.19369 10.7969 2.60255 11.4227L7.97588 19.578C8.08855 19.7514 8.15788 19.7774 8.84255 20.2714C9.82093 20.9778 10.9148 21.5086 12.0752 21.84C12.4999 24.1627 14.6752 25.506 18.2112 25.558V28.6C18.2112 29.5573 18.9873 30.3334 19.9446 30.3334H23.4112V33.8C23.4112 34.7573 24.1873 35.5334 25.1446 35.5334H28.6112V39C28.6112 39.9573 29.3873 40.7334 30.3446 40.7334H33.8112V44.2C33.8112 45.1573 34.5873 45.9334 35.5446 45.9334H39.0112C39.0112 50.206 38.7079 49.452 40.5106 51.2634C40.8355 51.5857 41.2748 51.7664 41.7326 51.766C42.4519 51.766 42.3999 51.662 47.7126 48.3514C48.1094 48.1039 48.3894 47.7065 48.4889 47.2496C48.5885 46.7926 48.4991 46.3148 48.2412 45.9247L18.4972 0.910018ZM13.0459 20.306C11.6872 19.9892 10.4186 19.3667 9.33655 18.486L4.03255 10.4607L4.89922 9.31669L6.73655 10.0967C7.27013 10.3231 7.88157 10.2678 8.36588 9.94935L14.8226 5.67669C15.3068 5.35778 15.5996 4.81785 15.6026 4.23802V2.24469L17.0152 1.86335L25.7859 15.08L19.7192 19.084C17.7506 20.3747 15.3441 20.8153 13.0459 20.306ZM41.7326 50.0327L40.7359 49.0447V45.9334C40.7359 44.9761 39.9598 44.2 39.0026 44.2H35.5359V40.7334C35.5359 39.7761 34.7598 39 33.8026 39H30.3359V35.5334C30.3359 34.5761 29.5598 33.8 28.6026 33.8H25.1359V30.3334C25.1359 29.3761 24.3598 28.6 23.4026 28.6H19.9359V25.558C19.9359 24.6007 19.1598 23.8247 18.2026 23.8247C16.8592 23.8247 14.7359 23.5474 13.9992 22.204C16.3432 22.4157 18.6897 21.826 20.6552 20.5314L26.7219 16.5274L46.8026 46.878L41.7326 50.0327Z" fill="black"/>
<path d="M19.7846 10.7293L17.8779 7.84334C17.3513 7.04412 16.2766 6.82297 15.4772 7.34934L9.68789 11.1713C8.89167 11.7007 8.67451 12.7749 9.20256 13.572L11.1092 16.4667C11.6386 17.2629 12.7128 17.4801 13.5099 16.952L19.2992 13.13C20.0954 12.6006 20.3126 11.5265 19.7846 10.7293V10.7293ZM12.5566 15.5133L10.6412 12.6187L16.4652 8.79667L18.3719 11.6913L12.5566 15.5133Z" fill="#F3643F"/>
<path d="M23.4 36.4002C23.4 35.9216 23.012 35.5336 22.5333 35.5336H1.73333V33.8002H20.8C21.2786 33.8002 21.6667 33.4122 21.6667 32.9336C21.6667 32.4549 21.2786 32.0669 20.8 32.0669H0.866667C0.38802 32.0669 0 32.4549 0 32.9336V36.4002C0 36.8789 0.38802 37.2669 0.866667 37.2669H22.5333C23.012 37.2669 23.4 36.8789 23.4 36.4002Z" fill="black"/>
<path d="M51.1344 32.0669H41.601C41.1224 32.0669 40.7344 32.4549 40.7344 32.9336C40.7344 33.4122 41.1224 33.8002 41.601 33.8002H50.2677V35.5336H44.201C43.7224 35.5336 43.3344 35.9216 43.3344 36.4002C43.3344 36.8789 43.7224 37.2669 44.201 37.2669H51.1344C51.613 37.2669 52.001 36.8789 52.001 36.4002V32.9336C52.001 32.4549 51.613 32.0669 51.1344 32.0669Z" fill="black"/>
<path d="M26.4748 19.214C26.3803 19.1507 26.2743 19.1065 26.1628 19.084C25.7258 18.9961 25.2933 19.254 25.163 19.6803C25.0327 20.1066 25.247 20.5622 25.6585 20.7337C26.07 20.9051 26.5444 20.7365 26.7553 20.3438C26.9663 19.9511 26.8449 19.4624 26.4748 19.214Z" fill="#F3643F"/>
<path d="M33.0921 31.6942C33.3653 32.0861 33.9042 32.183 34.2968 31.9109C34.6887 31.6377 34.7856 31.0988 34.5135 30.7062L28.4468 22.0395C28.2778 21.7673 27.9725 21.6105 27.6528 21.6318C27.3331 21.6531 27.0513 21.849 26.9199 22.1412C26.7886 22.4335 26.8292 22.7743 27.0255 23.0275L30.0588 27.3609L33.0921 31.6942Z" fill="#F3643F"/>
</g>
<defs>
<clipPath id="clip0_535_10589">
<rect width="52" height="52" fill="white"/>
</clipPath>
</defs>
</svg>
