<svg width="52" height="52" viewBox="0 0 52 52" fill="none" xmlns="http://www.w3.org/2000/svg">
<g clip-path="url(#clip0_535_10569)">
<path d="M13.3651 16.3635C12.9522 16.3635 12.5734 16.1049 12.4213 15.7215C12.2655 15.3284 12.3766 14.8635 12.6954 14.5845C13.0185 14.3017 13.5007 14.2537 13.8726 14.469C14.2447 14.6845 14.4463 15.124 14.3613 15.5469C14.2671 16.0159 13.8433 16.3635 13.3651 16.3635Z" fill="black"/>
<path d="M31.9289 37.2183C31.5046 37.2183 31.117 36.9453 30.973 36.5465C30.8332 36.1591 30.9474 35.71 31.2589 35.4393C31.5894 35.1521 32.0739 35.1095 32.4502 35.3323C32.8017 35.5405 32.9969 35.9587 32.9318 36.3618C32.8533 36.8479 32.4223 37.2183 31.9289 37.2183V37.2183Z" fill="black"/>
<path d="M51.8361 7.54999C51.6981 7.17776 51.3557 6.9201 50.9597 6.89054L45.4228 6.47637L45.0087 0.939907C44.9791 0.544017 44.7215 0.20165 44.3493 0.0635257C43.9769 -0.0747006 43.5585 0.0168071 43.2777 0.297525L38.8521 4.7231C38.1189 5.45608 37.6944 6.43026 37.6566 7.4663C37.6559 7.48468 37.6557 7.50307 37.6561 7.52145L37.7164 10.9124C33.7468 7.70233 28.6971 5.77752 23.2062 5.77752C10.4619 5.77752 0.09375 16.1452 0.09375 28.8888C0.09375 41.6325 10.4619 52.0001 23.2062 52.0001C35.9504 52.0001 46.3185 41.6325 46.3185 28.8888C46.3185 23.31 44.3314 18.1866 41.028 14.189L44.3796 14.2431C44.3851 14.2432 44.3905 14.2432 44.3959 14.2432C44.4083 14.2432 44.4207 14.243 44.4331 14.2425C45.4689 14.2047 46.4432 13.7801 47.1763 13.047L51.6021 8.62147C51.8828 8.34075 51.9742 7.92211 51.8361 7.54999V7.54999ZM40.2884 6.1594L43.1483 3.2995L43.4278 7.03557L39.7445 10.7247L39.6875 7.51556C39.7123 7.00328 39.9251 6.52258 40.2884 6.1594V6.1594ZM23.2062 49.9687C11.582 49.9687 2.125 40.5122 2.125 28.8886C2.125 17.265 11.5819 7.80857 23.2062 7.80857C28.606 7.80857 33.538 9.84946 37.2717 13.2001L34.9195 15.5523C31.7908 12.8013 27.69 11.1309 23.2062 11.1309C21.1409 11.1309 19.116 11.4841 17.1874 12.1807C16.6599 12.3713 16.3867 12.9534 16.5772 13.481C16.7678 14.0085 17.3496 14.282 17.8775 14.0912C19.5841 13.4747 21.3768 13.1621 23.2062 13.1621C27.1298 13.1621 30.7225 14.6064 33.4805 16.9911L31.1243 19.3473C28.9745 17.5603 26.2136 16.4843 23.2062 16.4843C16.3661 16.4843 10.8013 22.0489 10.8013 28.8886C10.8013 35.7283 16.3661 41.2929 23.2062 41.2929C25.1611 41.2929 27.1101 40.8241 28.8426 39.9372C29.3419 39.6816 29.5393 39.0696 29.2838 38.5704C29.0281 38.071 28.416 37.8737 27.9168 38.1292C26.449 38.8807 24.864 39.2618 23.2062 39.2618C17.4862 39.2618 12.8325 34.6085 12.8325 28.8887C12.8325 23.1689 17.4861 18.5157 23.2062 18.5157C25.6534 18.5157 27.9051 19.368 29.681 20.7907L27.3117 23.1598C26.1546 22.3283 24.7367 21.8379 23.2063 21.8379C19.3183 21.8379 16.1551 25.0008 16.1551 28.8886C16.1551 32.7764 19.3183 35.9394 23.2063 35.9394C27.0942 35.9394 30.2573 32.7764 30.2573 28.8886C30.2573 27.2624 29.7036 25.7632 28.7751 24.569L31.1357 22.2086C32.6597 24.0147 33.5799 26.346 33.5799 28.8885C33.5799 30.004 33.4031 31.1018 33.0544 32.1512C32.8776 32.6835 33.1658 33.2584 33.6981 33.4353C34.23 33.612 34.8052 33.3241 34.9821 32.7917C35.3994 31.5352 35.6111 30.222 35.6111 28.8885C35.6111 25.7858 34.466 22.9456 32.5762 20.7681L34.929 18.4154C37.4183 21.1984 38.9337 24.8698 38.9337 28.8885C38.9337 37.5601 31.8784 44.615 23.2064 44.615C14.5344 44.615 7.47875 37.5602 7.47875 28.8886C7.47875 25.5382 8.52261 22.3381 10.4975 19.6342C10.8284 19.1812 10.7294 18.5458 10.2764 18.215C9.82342 17.8843 9.18804 17.9831 8.85715 18.4361C6.62664 21.4902 5.4475 25.1046 5.4475 28.8886C5.4475 38.6804 13.4141 46.6464 23.2061 46.6464C32.9982 46.6464 40.9647 38.6803 40.9647 28.8886C40.9647 24.3098 39.2226 20.1304 36.3664 16.9779L38.7169 14.6276C42.1734 18.3837 44.2871 23.3939 44.2871 28.8887C44.2873 40.5122 34.8303 49.9687 23.2062 49.9687V49.9687ZM28.2259 28.8886C28.2259 31.6564 25.9741 33.9081 23.2061 33.9081C20.4381 33.9081 18.1862 31.6564 18.1862 28.8886C18.1862 26.1209 20.4381 23.8691 23.2061 23.8691C24.175 23.8691 25.0805 24.1454 25.8485 24.6227L22.609 27.862C22.2124 28.2586 22.2124 28.9017 22.609 29.2983C22.8073 29.4967 23.0672 29.5958 23.3271 29.5958C23.587 29.5958 23.8469 29.4966 24.0453 29.2983L27.3233 26.0205C27.8919 26.8341 28.2259 27.823 28.2259 28.8886ZM45.7401 11.6107C45.3767 11.974 44.8955 12.1868 44.3829 12.2115L41.1848 12.1598L43.136 10.2088C43.1577 10.1871 43.178 10.1644 43.1974 10.1413L44.8646 8.47146L48.6 8.75096L45.7401 11.6107Z" fill="black"/>
</g>
<defs>
<clipPath id="clip0_535_10569">
<rect width="52" height="52" fill="white"/>
</clipPath>
</defs>
</svg>
