<svg width="52" height="52" viewBox="0 0 52 52" fill="none" xmlns="http://www.w3.org/2000/svg">
<path d="M39.6633 33.4597C39.7407 33.4665 39.8187 33.458 39.8927 33.4346C39.9668 33.4111 40.0355 33.3733 40.0949 33.3232C40.1542 33.2731 40.2031 33.2117 40.2387 33.1427C40.2742 33.0736 40.2958 32.9982 40.3021 32.9207C40.6435 28.8655 41.7358 24.9091 43.5233 21.2531C45.6813 21.1541 47.7148 20.2143 49.1887 18.6349C50.6626 17.0556 51.4598 14.962 51.4096 12.8023C51.3594 10.6426 50.4658 8.58835 48.9202 7.07914C47.3745 5.56994 45.2995 4.72568 43.1392 4.72705H40.7756C40.6188 4.72705 40.4685 4.78931 40.3577 4.90013C40.2469 5.01094 40.1847 5.16124 40.1847 5.31796C40.1847 5.47468 40.2469 5.62498 40.3577 5.7358C40.4685 5.84661 40.6188 5.90887 40.7756 5.90887H43.1392C45.0198 5.90887 46.8234 6.65595 48.1532 7.98575C49.483 9.31555 50.2301 11.1192 50.2301 12.9998C50.2301 14.8804 49.483 16.684 48.1532 18.0138C46.8234 19.3436 45.0198 20.0907 43.1392 20.0907H26.0028C25.8462 20.0905 25.696 20.0282 25.5852 19.9174C25.4745 19.8066 25.4121 19.6564 25.4119 19.4998V6.49978C25.4121 6.34312 25.4745 6.19294 25.5852 6.08217C25.696 5.9714 25.8462 5.90907 26.0028 5.90887H37.821C37.9777 5.90887 38.128 5.84661 38.2389 5.7358C38.3497 5.62498 38.4119 5.47468 38.4119 5.31796C38.4119 5.16124 38.3497 5.01094 38.2389 4.90013C38.128 4.78931 37.9777 4.72705 37.821 4.72705H26.0028C25.5328 4.72757 25.0822 4.9145 24.7499 5.24684C24.4176 5.57918 24.2306 6.02978 24.2301 6.49978V7.09069H20.0937C19.937 7.09069 19.7867 7.15295 19.6759 7.26376C19.5651 7.37458 19.5028 7.52488 19.5028 7.6816V8.86342H13.0028C12.5328 8.86393 12.0822 9.05087 11.7499 9.38321C11.4176 9.71555 11.2306 10.1661 11.2301 10.6361H8.27557C8.11885 10.6361 7.96855 10.6984 7.85773 10.8092C7.74692 10.92 7.68466 11.0703 7.68466 11.2271V12.4089H1.18466C1.02794 12.4089 0.87764 12.4711 0.766823 12.5819C0.656006 12.6928 0.59375 12.8431 0.59375 12.9998C0.59375 13.1565 0.656006 13.3068 0.766823 13.4176C0.87764 13.5284 1.02794 13.5907 1.18466 13.5907H7.68466V14.7725C7.68466 14.9292 7.74692 15.0795 7.85773 15.1903C7.96855 15.3012 8.11885 15.3634 8.27557 15.3634H11.2301C11.2306 15.8334 11.4176 16.284 11.7499 16.6164C12.0822 16.9487 12.5328 17.1356 13.0028 17.1361H19.5028V18.318C19.5028 18.4747 19.5651 18.625 19.6759 18.7358C19.7867 18.8466 19.937 18.9089 20.0937 18.9089H24.2301V19.4998C24.2306 19.9698 24.4176 20.4204 24.7499 20.7527C25.0822 21.0851 25.5328 21.272 26.0028 21.2725H27.5422C28.2183 21.8686 28.6794 22.6708 28.8542 23.5551C29.029 24.4394 28.9078 25.3567 28.5093 26.1652L28.4288 26.3265C28.3838 26.4166 28.3625 26.5167 28.3671 26.6173C28.3716 26.7179 28.4018 26.8157 28.4547 26.9014C28.5077 26.9871 28.5817 27.0578 28.6696 27.1068C28.7576 27.1559 28.8567 27.1816 28.9574 27.1816H32.5028V40.1816H23.6392C23.4825 40.1816 23.3322 40.2439 23.2214 40.3547C23.1106 40.4655 23.0483 40.6158 23.0483 40.7725C23.0502 42.4958 23.7357 44.148 24.9543 45.3665C26.1728 46.5851 27.825 47.2706 29.5483 47.2725H36.0483C36.205 47.2725 36.3553 47.2103 36.4661 47.0994C36.5769 46.9886 36.6392 46.8383 36.6392 46.6816C36.6392 46.5249 36.5769 46.3746 36.4661 46.2638C36.3553 46.1529 36.205 46.0907 36.0483 46.0907H29.5483C28.2406 46.089 26.9792 45.6063 26.0044 44.7346C25.0297 43.8628 24.4097 42.6628 24.2627 41.3634H26.056C26.1961 42.1887 26.6234 42.9379 27.2625 43.4786C27.9015 44.0193 28.7112 44.3166 29.5483 44.318H43.1392V46.0907H39.0028C38.8461 46.0907 38.6958 46.1529 38.585 46.2638C38.4742 46.3746 38.4119 46.5249 38.4119 46.6816C38.4119 46.8383 38.4742 46.9886 38.585 47.0994C38.6958 47.2103 38.8461 47.2725 39.0028 47.2725H43.7301C43.8868 47.2725 44.0371 47.2103 44.1479 47.0994C44.2588 46.9886 44.321 46.8383 44.321 46.6816V40.7725C44.321 40.6158 44.2588 40.4655 44.1479 40.3547C44.0371 40.2439 43.8868 40.1816 43.7301 40.1816H40.1847V35.7004C40.1847 35.5437 40.1224 35.3934 40.0116 35.2826C39.9008 35.1718 39.7505 35.1095 39.5937 35.1095C39.437 35.1095 39.2867 35.1718 39.1759 35.2826C39.0651 35.3934 39.0028 35.5437 39.0028 35.7004V40.1816H33.6847V21.2725H42.1977C40.4997 24.9104 39.4592 28.8202 39.1243 32.8209C39.1178 32.8983 39.1265 32.9761 39.15 33.0501C39.1736 33.1241 39.2114 33.1927 39.2615 33.252C39.3115 33.3113 39.3728 33.3602 39.4417 33.3958C39.5107 33.4315 39.586 33.4532 39.6633 33.4597ZM8.86648 14.1816V11.818H11.2301V14.1816H8.86648ZM20.6847 17.7271V15.6589C20.6847 15.5022 20.6224 15.3519 20.5116 15.241C20.4008 15.1302 20.2505 15.068 20.0937 15.068C19.937 15.068 19.7867 15.1302 19.6759 15.241C19.5651 15.3519 19.5028 15.5022 19.5028 15.6589V15.9543H13.0028C12.8462 15.9541 12.696 15.8918 12.5852 15.781C12.4745 15.6703 12.4121 15.5201 12.4119 15.3634V10.6361C12.4121 10.4795 12.4745 10.3293 12.5852 10.2185C12.696 10.1078 12.8462 10.0454 13.0028 10.0452H19.5028V12.9998C19.5028 13.1565 19.5651 13.3068 19.6759 13.4176C19.7867 13.5284 19.937 13.5907 20.0937 13.5907C20.2505 13.5907 20.4008 13.5284 20.5116 13.4176C20.6224 13.3068 20.6847 13.1565 20.6847 12.9998V8.27251H24.2301V17.7271H20.6847ZM43.1392 41.3634V43.1361H29.5483C29.0244 43.1354 28.5156 42.9611 28.1014 42.6403C27.6872 42.3195 27.3911 41.8705 27.2594 41.3634H43.1392ZM32.5028 25.9998H29.853C30.1111 25.2107 30.1809 24.3722 30.0568 23.5513C29.9327 22.7304 29.6182 21.95 29.1383 21.2725H32.5028V25.9998Z" fill="black"/>
<path d="M42.5518 8.86328H29.5518C29.3951 8.86328 29.2448 8.92554 29.134 9.03635C29.0232 9.14717 28.9609 9.29747 28.9609 9.45419C28.9609 9.61091 29.0232 9.76121 29.134 9.87203C29.2448 9.98284 29.3951 10.0451 29.5518 10.0451H42.5518C42.7086 10.0451 42.8589 9.98284 42.9697 9.87203C43.0805 9.76121 43.1428 9.61091 43.1428 9.45419C43.1428 9.29747 43.0805 9.14717 42.9697 9.03635C42.8589 8.92554 42.7086 8.86328 42.5518 8.86328Z" fill="#F3643F"/>
<path d="M42.5518 12.4087H29.5518C29.3951 12.4087 29.2448 12.4709 29.134 12.5818C29.0232 12.6926 28.9609 12.8429 28.9609 12.9996C28.9609 13.1563 29.0232 13.3066 29.134 13.4174C29.2448 13.5283 29.3951 13.5905 29.5518 13.5905H42.5518C42.7086 13.5905 42.8589 13.5283 42.9697 13.4174C43.0805 13.3066 43.1428 13.1563 43.1428 12.9996C43.1428 12.8429 43.0805 12.6926 42.9697 12.5818C42.8589 12.4709 42.7086 12.4087 42.5518 12.4087Z" fill="#F3643F"/>
<path d="M42.5518 15.9541H29.5518C29.3951 15.9541 29.2448 16.0164 29.134 16.1272C29.0232 16.238 28.9609 16.3883 28.9609 16.545C28.9609 16.7017 29.0232 16.852 29.134 16.9628C29.2448 17.0737 29.3951 17.1359 29.5518 17.1359H42.5518C42.7086 17.1359 42.8589 17.0737 42.9697 16.9628C43.0805 16.852 43.1428 16.7017 43.1428 16.545C43.1428 16.3883 43.0805 16.238 42.9697 16.1272C42.8589 16.0164 42.7086 15.9541 42.5518 15.9541Z" fill="#F3643F"/>
</svg>
