<svg width="47" height="47" viewBox="0 0 47 47" fill="none" xmlns="http://www.w3.org/2000/svg">
<g clip-path="url(#clip0_535_10616)">
<path d="M43.9771 39.9178H29.3876C28.5335 39.9178 27.7153 40.2816 27.1432 40.9156C27.1388 40.9205 27.1345 40.9254 27.1303 40.9304L25.4775 42.8707V23.8951C26.0293 23.8073 26.4861 23.416 26.6521 22.8661L28.3601 17.2092C29.0873 16.9803 29.6165 16.2999 29.6165 15.4981C29.6165 14.7535 29.1602 14.1138 28.5128 13.8429V11.1292H31.5155C32.2942 11.1292 32.9277 10.4957 32.9277 9.71707V8.57934C34.1671 8.07363 35.0432 6.85603 35.0432 5.43695V5.28869C35.0432 4.90774 34.7344 4.59884 34.3533 4.59884C33.9723 4.59884 33.6635 4.90774 33.6635 5.28869V5.43695C33.6635 6.39833 32.9859 7.20413 32.0832 7.40278C32.0498 7.41003 32.0163 7.41654 31.9827 7.42214L31.9783 7.42297C31.9428 7.42885 31.9074 7.43371 31.8718 7.43766L31.8693 7.43793C31.8353 7.4417 31.8014 7.44436 31.7674 7.44638C31.7646 7.44656 31.7618 7.44684 31.759 7.44702C31.7227 7.44904 31.6864 7.45005 31.6504 7.45005H14.7979C14.7618 7.45005 14.7257 7.44904 14.6893 7.44702C14.6865 7.44684 14.6837 7.44656 14.6809 7.44638C14.6469 7.44436 14.613 7.4417 14.579 7.43793L14.5765 7.43766C14.541 7.43371 14.5054 7.42885 14.47 7.42297L14.4656 7.42214C14.432 7.41654 14.3985 7.41003 14.3651 7.40278C13.4625 7.20413 12.7848 6.39843 12.7848 5.43695V1.37962H33.6635V2.52928C33.6635 2.91024 33.9723 3.21913 34.3533 3.21913C34.7344 3.21913 35.0432 2.91024 35.0432 2.52928V0.689854C35.0432 0.308896 34.7344 0 34.3533 0H12.0949C11.7138 0 11.405 0.308896 11.405 0.689854V5.43695C11.405 6.85594 12.2811 8.07363 13.5205 8.57934V9.71707C13.5205 10.4958 14.154 11.1292 14.9327 11.1292H18.4873V13.8429C17.8398 14.1138 17.3836 14.7534 17.3836 15.4981C17.3836 16.2999 17.9126 16.9804 18.64 17.2092L20.348 22.8661C20.5138 23.416 20.9708 23.8073 21.5226 23.8951V43.2413L19.2581 40.8258C19.2536 40.8211 19.2491 40.8164 19.2446 40.8118C18.6808 40.2437 17.8987 39.9179 17.0985 39.9179H3.02287C1.35612 39.9178 0 41.2739 0 42.9407V46.3102C0 46.6911 0.308805 47 0.689854 47H46.3102C46.6913 47 47.0001 46.6911 47.0001 46.3101V42.9407C47 41.2739 45.6439 39.9178 43.9771 39.9178ZM14.9328 9.74947C14.9148 9.74947 14.9002 9.73497 14.9002 9.71697V8.82967H31.5479V9.71697C31.5479 9.73487 31.5334 9.74947 31.5153 9.74947H14.9328ZM27.133 11.1292V13.7045H19.8669V11.1292H27.133ZM18.7632 15.4981C18.7632 15.2699 18.9489 15.0842 19.1771 15.0842H27.8229C28.0511 15.0842 28.2368 15.2699 28.2368 15.4981C28.2368 15.7263 28.0511 15.912 27.8229 15.912H19.1771C18.9489 15.912 18.7632 15.7263 18.7632 15.4981ZM20.106 17.2916H26.8941L25.3314 22.4674C25.3193 22.5074 25.2832 22.5342 25.2414 22.5342H21.7589C21.7171 22.5342 21.6809 22.5073 21.6688 22.4673L20.106 17.2916ZM1.37962 45.6204V42.9407C1.37962 42.0347 2.11684 41.2975 3.02287 41.2975H17.0984C17.5303 41.2975 17.9527 41.4722 18.2586 41.7771L21.8617 45.6204H1.37962ZM24.0979 43.3009C24.0979 43.418 24.0701 43.5355 24.0177 43.6403L23.4761 44.7233L22.9729 43.6424C22.9265 43.5429 22.9019 43.4322 22.9019 43.3222V41.964L24.0977 42.5239L24.0979 43.3009ZM24.0979 41.0004L22.9022 40.4406V38.009L24.0979 38.5688V41.0004ZM24.0979 37.0455L22.9022 36.4856V34.054L24.0979 34.6138V37.0455ZM24.0979 33.0904L22.9022 32.5305V30.0989L24.0979 30.6588V33.0904ZM24.0979 29.1354L22.9022 28.5755V26.1439L24.0979 26.7038V29.1354ZM24.0979 25.1804L22.9022 24.6206V23.9139H24.0979V25.1804ZM24.9477 45.6204L28.1735 41.8334C28.4843 41.4927 28.9263 41.2975 29.3876 41.2975H43.977C44.8832 41.2975 45.6203 42.0347 45.6203 42.9407V45.6204H24.9477Z" fill="black"/>
<path d="M30.1271 32.8624C29.8832 32.7291 29.595 32.711 29.3361 32.8125C29.0779 32.9141 28.8795 33.1232 28.792 33.386L27.5407 37.1401V37.1402C27.4282 37.4777 27.5146 37.8436 27.7662 38.0952C27.9449 38.2738 28.1812 38.3692 28.424 38.3692C28.5232 38.3692 28.6234 38.3533 28.7213 38.3207L32.4751 37.0693C32.7383 36.9816 32.9475 36.7832 33.0489 36.5248C33.1504 36.2661 33.1321 35.9778 32.9987 35.7342C32.3252 34.5025 31.359 33.5363 30.1271 32.8624ZM29.1318 36.7295L29.925 34.35C30.5633 34.7739 31.0874 35.2979 31.5113 35.9364L29.1318 36.7295Z" fill="#F3643F"/>
<path d="M18.1189 33.3862C18.0313 33.1231 17.833 32.914 17.5747 32.8126C17.3159 32.711 17.0276 32.729 16.7836 32.8624C15.5517 33.5361 14.5856 34.5025 13.9121 35.7339C13.7785 35.9777 13.7602 36.266 13.8618 36.5247C13.9632 36.7831 14.1724 36.9816 14.4354 37.0693L18.1894 38.3206C18.2873 38.3532 18.3874 38.3691 18.4866 38.3691C18.7295 38.3691 18.9658 38.2737 19.1444 38.0951C19.3959 37.8436 19.4824 37.4777 19.3699 37.1401V37.14L18.1189 33.3862ZM15.3997 35.9364C15.8235 35.2981 16.3477 34.7739 16.986 34.3501L17.7792 36.7295L15.3997 35.9364Z" fill="#F3643F"/>
</g>
<defs>
<clipPath id="clip0_535_10616">
<rect width="47" height="47" fill="white"/>
</clipPath>
</defs>
</svg>
