<svg width="52" height="52" viewBox="0 0 52 52" fill="none" xmlns="http://www.w3.org/2000/svg">
<g clip-path="url(#clip0_535_10597)">
<path d="M22.3498 34.2881C22.0522 33.9905 21.5696 33.9905 21.2721 34.2881L15.8638 39.6965C15.5662 39.9941 15.5662 40.4767 15.8638 40.7743C16.1581 41.0686 16.6475 41.0682 16.9415 40.7743L22.3498 35.3659C22.6474 35.0682 22.6474 34.5857 22.3498 34.2881Z" fill="#F3643F"/>
<path d="M18.0075 33.7749C17.7099 33.4774 17.2273 33.4774 16.9298 33.7749L13.4341 37.2706C13.1365 37.5682 13.1365 38.0508 13.4341 38.3483C13.7284 38.6426 14.2172 38.643 14.5119 38.3483L18.0076 34.8526C18.3051 34.555 18.3052 34.0725 18.0075 33.7749Z" fill="#F3643F"/>
<path d="M42.1189 10.6845C42.0055 10.396 41.8322 10.1324 41.613 9.91314C41.1847 9.48485 40.6154 9.24902 40.0097 9.24902C38.7733 9.24902 37.7422 10.2814 37.7422 11.5165C37.7422 12.1222 37.978 12.6916 38.4063 13.1199C38.8346 13.5482 39.4039 13.7841 40.0097 13.7841C41.5862 13.7841 42.6929 12.1461 42.1189 10.6845ZM40.5354 12.0421C40.0775 12.5 39.2663 12.1628 39.2663 11.5165C39.2662 11.3179 39.3435 11.1313 39.484 10.9909C39.6244 10.8506 39.811 10.7732 40.0096 10.7732C40.6592 10.7732 40.993 11.5843 40.5354 12.0421Z" fill="#F3643F"/>
<path d="M51.874 8.36284C51.4204 6.75085 49.9348 5.62503 48.2617 5.62503C48.1116 5.62503 47.9618 5.63559 47.8126 5.65367C47.5512 5.28479 47.2574 4.93207 46.9273 4.60189C46.4132 4.08778 45.8412 3.65299 45.2277 3.29935C45.2277 3.29935 45.7828 1.053 45.7838 1.04934C46.0049 0.15407 44.8758 0 44.258 0C42.7607 0 41.4251 0.892225 40.8309 2.22939C39.9078 2.26809 39.0127 2.46085 38.1741 2.79439C38.1741 2.79439 36.1312 0.75146 36.1294 0.749733C35.8012 0.421484 35.3135 0.487905 35.0037 0.79767C33.7244 2.07695 33.5634 4.05731 34.52 5.51331L33.1185 6.91477C33.1185 6.91477 31.5428 5.33903 31.5415 5.33771C31.2141 5.01047 30.7236 5.07791 30.4158 5.38565C29.7066 6.09475 29.3161 7.03756 29.3161 8.04038C29.3161 8.78412 29.5314 9.49476 29.9317 10.1016L28.5306 11.5027C28.5306 11.5027 26.9544 9.9266 26.9535 9.92568C26.6297 9.6019 26.1358 9.66558 25.8278 9.97362C24.5485 11.2529 24.3874 13.2333 25.344 14.6893L23.9426 16.0907L22.3655 14.5136C22.0367 14.1846 21.5506 14.2509 21.2399 14.5615C19.9606 15.8408 19.7995 17.8211 20.7562 19.2771L19.6052 20.4281C18.3813 19.4692 16.8454 18.9956 15.2922 19.0983C15.2922 19.0983 14.4239 14.692 14.4233 14.6896C13.7317 11.1799 10.2219 8.82465 6.71111 9.51659C3.20183 10.2082 0.846193 13.7173 1.53814 17.2287L3.746 28.4324L2.45108 29.7274C1.76665 30.4117 1.38975 31.3217 1.38975 32.2897C1.38975 33.2576 1.76665 34.1675 2.45108 34.852L3.24124 35.6422L0.543334 41.5336C-0.467922 43.7459 0.321826 46.5207 1.9645 48.1904C1.9645 48.1904 3.96172 50.1876 3.96253 50.1884C6.3791 52.605 10.4221 52.6027 12.8363 50.1884L32.1964 30.8283L33.7735 32.4054C34.1008 32.7328 34.5877 32.6689 34.8992 32.3574C36.1785 31.0782 36.3396 29.0978 35.383 27.6418L36.7844 26.2403L38.3615 27.8174C38.5103 27.9662 38.7053 28.0406 38.9003 28.0406C39.1325 28.0406 39.3268 27.9298 39.4871 27.7696C40.7664 26.4903 40.9275 24.5099 39.9708 23.0539L41.3723 21.6525C41.3723 21.6525 42.947 23.2272 42.9494 23.2295C43.2748 23.5549 43.7699 23.4867 44.0751 23.1816C45.3145 21.9421 45.525 19.9298 44.5591 18.4657L45.9604 17.0644C45.9604 17.0644 47.5363 18.6403 47.5374 18.6415C47.8625 18.9665 48.3579 18.8987 48.6631 18.5935C50.1037 17.153 50.1256 14.8237 48.7306 13.3548C49.1617 12.2669 49.3502 11.1043 49.2942 9.95118C49.2942 9.95118 51.3624 9.36902 51.365 9.36831C51.8119 9.24247 51.9919 8.78209 51.874 8.36284ZM44.0949 1.53014L43.8161 2.65819C43.402 2.51661 42.9756 2.40906 42.5401 2.33614C42.9205 1.87474 43.4787 1.57533 44.0949 1.53014ZM35.6689 2.4444L36.7544 3.5299C36.6692 3.58535 36.1362 3.97129 35.9624 4.11734C35.853 4.20925 35.7444 4.3034 35.6398 4.40069C35.3498 3.78188 35.3595 3.05621 35.6689 2.4444ZM31.08 7.03187L32.0406 7.99255L31.0485 8.98471C30.912 8.69292 30.8401 8.37219 30.8401 8.04059C30.8402 7.6842 30.9232 7.34062 31.08 7.03187ZM26.4919 11.6198L27.4526 12.5805L26.4604 13.5727C26.3239 13.2809 26.252 12.9603 26.252 12.6286C26.2521 12.2722 26.3352 11.9287 26.4919 11.6198ZM21.9046 16.2086L22.8646 17.1686L21.8732 18.1599C21.5855 17.5422 21.596 16.8188 21.9046 16.2086ZM3.03313 16.9345C2.50135 14.2357 4.31241 11.5431 7.00544 11.0124C9.70019 10.4814 12.3978 12.2961 12.9276 14.9847C12.9276 14.9847 15.7374 29.2423 15.7388 29.2497C15.8662 29.8965 15.4303 30.5441 14.7853 30.6711C14.1374 30.7988 13.4912 30.364 13.3638 29.7176L10.5527 15.4525C10.2731 14.0345 8.89186 13.108 7.47374 13.3873C6.07228 13.6633 5.13202 15.065 5.40817 16.4665L7.10446 25.0741L5.04346 27.1351C5.04325 27.1352 3.03405 16.9395 3.03313 16.9345ZM10.2712 21.9073L8.40202 23.7764C8.40202 23.7764 6.9052 16.1807 6.90337 16.1719C6.78738 15.5837 7.18155 14.9983 7.76807 14.8827C8.36191 14.7658 8.9401 15.1537 9.0573 15.7473L10.2712 21.9073ZM11.7586 49.1107C9.92962 50.9396 6.86752 50.938 5.04021 49.1107C5.04021 49.1107 3.04329 47.1137 3.04217 47.1126C1.8479 45.9183 1.19425 43.7761 1.92925 42.1677L4.39062 36.7923L6.07289 38.4745L4.01016 42.9794C3.63134 43.8107 4.00823 44.925 4.61903 45.5358C4.61903 45.5358 6.61676 47.5335 6.61706 47.5338C7.57693 48.4937 9.20538 48.5103 10.1819 47.5338L12.6571 45.0586L14.2338 46.6354C14.2338 46.6354 11.7594 49.1098 11.7586 49.1107ZM7.22278 39.6243L11.5794 43.9811C11.5794 43.9811 9.10717 46.4533 9.10422 46.4562C8.71991 46.8405 8.07834 46.8398 7.69484 46.4562L5.69681 44.4582C5.45448 44.2159 5.35525 43.8793 5.42604 43.5486L7.22278 39.6243ZM15.3115 45.5578C15.3115 45.5578 3.53912 33.7854 3.52835 33.7746C2.7187 32.965 2.71961 31.6143 3.52835 30.8056L10.626 23.7079C10.626 23.7079 11.8683 30.012 11.8684 30.0124C12.1534 31.4589 13.6101 32.4565 15.0799 32.1666C16.5422 31.8783 17.5225 30.4186 17.2342 28.9551L15.5902 20.6124C16.8922 20.5802 18.1629 21.0767 19.0987 22.0124L28.9777 31.8915L15.3115 45.5578ZM34.2342 30.7106L33.2741 29.7505L34.2655 28.7592C34.5532 29.3771 34.5427 30.1005 34.2342 30.7106ZM38.8223 26.1226L37.8622 25.1626L38.8535 24.1712C39.1412 24.789 39.1307 25.5125 38.8223 26.1226ZM43.4111 21.5352L42.4504 20.5745L43.4426 19.5823C43.5791 19.8741 43.651 20.1949 43.651 20.5265C43.6508 20.8828 43.5678 21.2264 43.4111 21.5352ZM45.8496 15.0197L30.0553 30.8139L28.7421 29.5007L30.7035 27.5393C31.0011 27.2418 31.0011 26.7591 30.7035 26.4617C30.4059 26.1641 29.9233 26.1641 29.6258 26.4617L27.6644 28.423L23.1059 23.8646L38.9001 8.07034C40.1569 6.81361 42.2018 6.81351 43.4585 8.07034C44.7153 9.32718 44.7153 11.372 43.4585 12.6288L31.7575 24.3299C31.4599 24.6274 31.4599 25.1101 31.7575 25.4075C32.0551 25.7051 32.5377 25.7051 32.8352 25.4075L44.5363 13.7064C45.4317 12.811 45.9249 11.6188 45.9249 10.3495C45.9249 9.08018 45.4317 7.88804 44.5363 6.99256C42.6852 5.14149 39.6734 5.14159 37.8224 6.99256L22.0282 22.7868L20.715 21.4736L36.5092 5.67957C36.5107 5.67804 36.5122 5.67662 36.5138 5.6752C38.4654 3.72368 41.5245 3.19962 44.017 4.38516C45.1791 4.93776 46.1486 5.83303 46.8118 6.91792C48.3728 9.4717 47.9639 12.9053 45.8496 15.0197ZM47.9983 16.9464L47.0373 15.9854C47.0731 15.9483 47.1068 15.9096 47.1418 15.8719C47.4388 15.5516 47.7112 15.2088 47.9528 14.8448C48.317 15.493 48.3323 16.286 47.9983 16.9464ZM49.0777 8.42845C49.0152 8.16927 48.9384 7.91475 48.8508 7.6642C48.8496 7.66044 48.7331 7.33991 48.6684 7.18685C49.2586 7.29766 49.7793 7.6447 50.1114 8.13758L49.0777 8.42845Z" fill="black"/>
</g>
<defs>
<clipPath id="clip0_535_10597">
<rect width="52" height="52" fill="white"/>
</clipPath>
</defs>
</svg>
