<svg width="48" height="48" viewBox="0 0 48 48" fill="none" xmlns="http://www.w3.org/2000/svg">
<g clip-path="url(#clip0_535_10629)">
<path d="M33.3423 22.0676C33.7088 21.7011 33.7088 21.1055 33.3423 20.7393C32.9764 20.372 32.3831 20.372 32.0166 20.7393C31.6507 21.1055 31.6507 21.7011 32.0166 22.0676C32.3831 22.4349 32.9764 22.4349 33.3423 22.0676Z" fill="#F3643F"/>
<path d="M0.937501 48.1404H47.0626C47.4416 48.1404 47.7836 47.9118 47.9286 47.5607C48.0737 47.2095 47.9935 46.8056 47.7254 46.537L1.60034 0.322073C1.33228 0.0531153 0.929078 -0.0268749 0.578614 0.118428C0.228516 0.263732 0 0.606075 0 0.986212V47.2011C0 47.7199 0.419678 48.1404 0.937501 48.1404V48.1404ZM1.875 3.25382L9.41603 10.8096L7.42677 12.8016C7.06056 13.1686 7.06056 13.7634 7.42677 14.1303C7.79225 14.4969 8.38624 14.4976 8.75245 14.1303L10.7417 12.1379L14.7191 16.1234L12.7302 18.1155C12.364 18.4824 12.364 19.0772 12.7299 19.4441C13.0957 19.8107 13.6897 19.8114 14.0559 19.4441L16.0452 17.4517L20.0222 21.4369L18.0337 23.4297C17.6675 23.7963 17.6675 24.3911 18.0337 24.758C18.3999 25.1249 18.9932 25.1249 19.3594 24.758L21.3483 22.7652L25.3257 26.7508L23.3372 28.7436C22.971 29.1101 22.971 29.7049 23.3372 30.0718C23.7034 30.4388 24.2967 30.4388 24.6629 30.0718L26.6518 28.0794L30.6292 32.0642L28.6407 34.0574C28.2745 34.4243 28.2745 35.0191 28.6407 35.386C29.0069 35.7526 29.6005 35.7526 29.9667 35.3857L31.9549 33.3929L35.9323 37.3781L33.9438 39.3712C33.5779 39.7382 33.5779 40.333 33.9441 40.6995C34.31 41.0664 34.904 41.0664 35.2702 40.6995L37.2583 38.7064L44.799 46.2618H1.875V3.25382Z" fill="black"/>
<path d="M9.66284 19.5774C9.39478 19.3088 8.99158 19.2284 8.64111 19.3737C8.29102 19.519 8.0625 19.8617 8.0625 20.2415V39.1229C8.0625 39.6417 8.48218 40.0622 9 40.0622H27.8445C28.2239 40.0622 28.5656 39.8336 28.711 39.4825C28.856 39.1317 28.7754 38.7273 28.5077 38.4587L9.66284 19.5774ZM9.9375 38.1839V22.5095L25.5813 38.1839H9.9375Z" fill="#F3643F"/>
<path d="M29.3618 19.4113C29.728 19.7782 30.3213 19.7782 30.6879 19.4113C31.0537 19.0447 31.0537 18.45 30.6879 18.083L26.7097 14.0975C26.3439 13.7305 25.7502 13.7305 25.384 14.0975C25.0178 14.464 25.0178 15.0588 25.384 15.4257L29.3618 19.4113Z" fill="#F3643F"/>
<path d="M14.2304 9.62042L40.5463 35.9875C41.645 37.089 43.4248 37.089 44.5241 35.9875L47.1755 33.3313C48.2716 32.2331 48.2716 30.445 47.1755 29.3453L20.8599 2.9783C20.757 2.87519 20.6314 2.79741 20.4933 2.75154L12.5385 0.0949835C12.2019 -0.0172964 11.8302 0.0703993 11.5794 0.322112C11.3282 0.573457 11.2406 0.945522 11.3527 1.28309L14.0041 9.2535C14.0502 9.39183 14.1275 9.51732 14.2304 9.62042V9.62042ZM45.8491 30.6736C46.2149 31.0402 46.2149 31.6368 45.8494 32.0026L43.1984 34.6592C42.8322 35.0261 42.2386 35.0265 41.872 34.6592L39.8407 32.6238L43.8181 28.6383L45.8491 30.6736ZM42.4924 27.31L38.5146 31.2956L37.1889 29.9669L41.1667 25.9821L42.4924 27.31ZM20.8174 5.59266L39.8407 24.6531L35.8632 28.6386L16.8396 9.57786L20.8174 5.59266ZM19.3918 4.36382L15.6132 8.14941L13.7243 2.47121L19.3918 4.36382Z" fill="black"/>
</g>
<defs>
<clipPath id="clip0_535_10629">
<rect width="48" height="48" fill="white"/>
</clipPath>
</defs>
</svg>
