<svg width="52" height="52" viewBox="0 0 52 52" fill="none" xmlns="http://www.w3.org/2000/svg">
<path d="M42.1484 3.04688V6.09387H48.9538V12.8992H52.0008V3.04688H42.1484Z" fill="black"/>
<path d="M3.047 6.09387H9.85237V3.04688H0V12.8992H3.047V6.09387Z" fill="black"/>
<path d="M48.9538 45.9055H42.1484V48.9525H52.0008V39.1001H48.9538V45.9055Z" fill="black"/>
<path d="M3.047 39.1001H0V48.9525H9.85237V45.9055H3.047V39.1001Z" fill="black"/>
<path d="M48.4453 27.0344L49.3873 26.0055L48.4453 24.9766C44.7952 20.9902 41.0763 17.9489 37.3922 15.9371C33.629 13.8823 29.7969 12.8403 26.0022 12.8403C22.2077 12.8403 18.3755 13.8822 14.6123 15.9371C10.9282 17.9489 7.20932 20.9902 3.55922 24.9766L2.61719 26.0055L3.55922 27.0344C7.20932 31.0208 10.9282 34.0621 14.6123 36.0739C18.3755 38.1287 22.2076 39.1707 26.0022 39.1707C29.7968 39.1707 33.629 38.1288 37.3922 36.0739C41.0764 34.0621 44.7952 31.0208 48.4453 27.0344V27.0344ZM26.0011 36.0827C20.4445 36.0827 15.9237 31.5621 15.9237 26.0055C15.9237 20.4489 20.4445 15.9283 26.0011 15.9283C31.5577 15.9283 36.0784 20.4489 36.0784 26.0055C36.0784 31.5621 31.5577 36.0827 26.0011 36.0827ZM6.77126 26.0055C9.39219 23.2777 12.0258 21.0852 14.6295 19.4587C13.5151 21.3869 12.8767 23.623 12.8767 26.0055C12.8767 28.3881 13.5151 30.6241 14.6295 32.5523C12.0258 30.9258 9.39219 28.7334 6.77126 26.0055V26.0055ZM37.3713 32.5547C38.4865 30.6261 39.1254 28.3891 39.1254 26.0055C39.1254 23.6219 38.4865 21.3849 37.3713 19.4563C39.9763 21.0831 42.6112 23.2763 45.2334 26.0055C42.6111 28.7347 39.9761 30.9279 37.3713 32.5547Z" fill="black"/>
<path d="M25.999 21.0767C23.2813 21.0767 21.0703 23.2877 21.0703 26.0054C21.0703 28.7231 23.2814 30.9342 25.999 30.9342C28.7167 30.9342 30.9278 28.7231 30.9278 26.0054C30.9278 23.2877 28.7168 21.0767 25.999 21.0767V21.0767ZM25.999 27.8872C24.9614 27.8872 24.1173 27.043 24.1173 26.0054C24.1173 24.9678 24.9615 24.1237 25.999 24.1237C27.0365 24.1237 27.8808 24.9679 27.8808 26.0054C27.8808 27.043 27.0366 27.8872 25.999 27.8872Z" fill="#F5643F"/>
</svg>
