<svg width="24" height="24" viewBox="0 0 24 24" fill="none" xmlns="http://www.w3.org/2000/svg">
<g clip-path="url(#clip0_535_10559)">
<path d="M18.002 12C18.002 12.552 17.554 13 17.002 13C16.45 13 16.002 12.552 16.002 12C16.002 11.448 16.45 11 17.002 11C17.554 11 18.002 11.448 18.002 12ZM7.002 5C7.554 5 8.002 4.553 8.002 4C8.002 2.897 8.899 2 10.002 2C11.105 2 12.002 2.897 12.002 4C12.002 4.553 12.45 5 13.002 5C13.554 5 14.002 4.553 14.002 4C14.002 1.794 12.208 0 10.002 0C7.796 0 6.002 1.794 6.002 4C6.002 4.553 6.45 5 7.002 5ZM24.002 13V15C24.002 16.106 23.254 16.779 22.434 16.954C21.773 18.608 20.562 20.005 19.002 20.908V21C19.002 22.654 17.656 24 16.002 24C14.698 24 13.586 23.164 13.173 22H10.83C10.417 23.164 9.305 24 8.001 24C6.347 24 5.001 22.654 5.001 21V20.921C2.366 19.402 0.819 16.544 1.018 13.47C1.081 12.492 1.328 11.563 1.723 10.714C0.706 10.233 0 9.198 0 8C0 6.346 1.346 5 3 5C3.552 5 4 5.447 4 6C4 6.553 3.552 7 3 7C2.448 7 2 7.448 2 8C2 8.491 2.356 8.9 2.823 8.984C4.344 7.161 6.676 6 9.266 6H14.629C15.362 4.522 16.731 3.488 18.556 3.054C19.147 2.915 19.759 3.051 20.237 3.428C20.722 3.812 21.001 4.386 21.001 5.004V8.719C21.609 9.41 22.095 10.2 22.433 11.046C23.254 11.221 24.002 11.894 24.002 13ZM22.002 13H21.708C21.266 13 20.876 12.709 20.75 12.285C20.476 11.365 19.97 10.509 19.287 9.808C19.104 9.621 19.002 9.37 19.002 9.11V5.004C18.027 5.236 16.737 5.834 16.238 7.339C16.097 7.762 15.685 8.053 15.248 8.023C15.18 8.02 9.268 8.001 9.268 8.001C5.965 8.001 3.218 10.46 3.015 13.6C2.855 16.069 4.196 18.352 6.432 19.415C6.781 19.581 7.002 19.933 7.002 20.318V21.001C7.002 21.553 7.451 22.001 8.002 22.001C8.553 22.001 9.002 21.553 9.002 21.001C9.002 20.449 9.45 20.001 10.002 20.001H14.002C14.554 20.001 15.002 20.448 15.002 21.001C15.002 21.554 15.451 22.001 16.002 22.001C16.553 22.001 17.002 21.553 17.002 21.001V20.307C17.002 19.922 17.223 19.571 17.571 19.405C19.113 18.669 20.271 17.324 20.75 15.717C20.876 15.293 21.266 15.002 21.708 15.002H22.002V13.002V13Z" fill="black"/>
</g>
<defs>
<clipPath id="clip0_535_10559">
<rect width="24" height="24" fill="white"/>
</clipPath>
</defs>
</svg>
