<svg width="24" height="24" viewBox="0 0 24 24" fill="none" xmlns="http://www.w3.org/2000/svg">
<path d="M19.15 5.33333H16.515C16.3177 4.39284 15.7957 3.54779 15.0371 2.9406C14.2784 2.33341 13.3294 2.00121 12.35 2L10.65 2C9.67063 2.00121 8.72162 2.33341 7.96294 2.9406C7.20425 3.54779 6.68228 4.39284 6.485 5.33333H3.85C3.62457 5.33333 3.40837 5.42113 3.24896 5.57741C3.08955 5.73369 3 5.94565 3 6.16667C3 6.38768 3.08955 6.59964 3.24896 6.75592C3.40837 6.9122 3.62457 7 3.85 7H4.7V17.8333C4.70135 18.938 5.14955 19.997 5.94629 20.7782C6.74302 21.5593 7.82324 21.9987 8.95 22H14.05C15.1768 21.9987 16.257 21.5593 17.0537 20.7782C17.8505 19.997 18.2987 18.938 18.3 17.8333V7H19.15C19.3754 7 19.5916 6.9122 19.751 6.75592C19.9104 6.59964 20 6.38768 20 6.16667C20 5.94565 19.9104 5.73369 19.751 5.57741C19.5916 5.42113 19.3754 5.33333 19.15 5.33333V5.33333ZM10.65 3.66667H12.35C12.8772 3.6673 13.3914 3.82781 13.8219 4.1262C14.2524 4.42459 14.5782 4.84624 14.7547 5.33333H8.24535C8.4218 4.84624 8.74762 4.42459 9.17813 4.1262C9.60864 3.82781 10.1228 3.6673 10.65 3.66667V3.66667ZM16.6 17.8333C16.6 18.4964 16.3313 19.1323 15.8531 19.6011C15.3749 20.0699 14.7263 20.3333 14.05 20.3333H8.95C8.2737 20.3333 7.6251 20.0699 7.14688 19.6011C6.66866 19.1323 6.4 18.4964 6.4 17.8333V7H16.6V17.8333Z" fill="black"/>
<path d="M10.1503 16.9611C10.3746 16.9611 10.5897 16.872 10.7483 16.7134C10.9069 16.5548 10.996 16.3397 10.996 16.1154V11.0415C10.996 10.8172 10.9069 10.6021 10.7483 10.4435C10.5897 10.2849 10.3746 10.1958 10.1503 10.1958C9.92606 10.1958 9.71097 10.2849 9.55238 10.4435C9.39378 10.6021 9.30469 10.8172 9.30469 11.0415V16.1154C9.30469 16.3397 9.39378 16.5548 9.55238 16.7134C9.71097 16.872 9.92606 16.9611 10.1503 16.9611Z" fill="black"/>
<path d="M13.5332 16.9611C13.7574 16.9611 13.9725 16.872 14.1311 16.7134C14.2897 16.5548 14.3788 16.3397 14.3788 16.1154V11.0415C14.3788 10.8172 14.2897 10.6021 14.1311 10.4435C13.9725 10.2849 13.7574 10.1958 13.5332 10.1958C13.3089 10.1958 13.0938 10.2849 12.9352 10.4435C12.7766 10.6021 12.6875 10.8172 12.6875 11.0415V16.1154C12.6875 16.3397 12.7766 16.5548 12.9352 16.7134C13.0938 16.872 13.3089 16.9611 13.5332 16.9611Z" fill="black"/>
</svg>
