<svg width="46" height="55" viewBox="0 0 46 55" fill="none" xmlns="http://www.w3.org/2000/svg">
<path d="M11.2189 15.4506C11.3369 15.2619 11.5139 15.1675 11.7498 15.1675H15.0058C15.1237 15.1675 15.2181 15.2147 15.2889 15.3091C15.3833 15.3799 15.4305 15.4742 15.4305 15.5922V39.5165C15.4305 39.6345 15.3833 39.7406 15.2889 39.835C15.2181 39.9058 15.1237 39.9412 15.0058 39.9412H11.7498C11.6318 39.9412 11.5257 39.9058 11.4313 39.835C11.3605 39.7406 11.3251 39.6345 11.3251 39.5165V22.812C11.3251 22.7176 11.3015 22.6704 11.2543 22.6704C11.2071 22.6704 11.16 22.7058 11.1128 22.7766L8.03375 28.3683C7.91578 28.5571 7.80961 28.6515 7.71523 28.6515C7.62086 28.6515 7.51468 28.5571 7.39671 28.3683L4.3177 22.7766C4.27051 22.7058 4.22332 22.6704 4.17613 22.6704C4.12895 22.6704 4.10535 22.7176 4.10535 22.812V39.5165C4.10535 39.6345 4.05816 39.7406 3.96379 39.835C3.89301 39.9058 3.79863 39.9412 3.68066 39.9412H0.424691C0.306722 39.9412 0.200549 39.9058 0.106173 39.835C0.035391 39.7406 0 39.6345 0 39.5165V15.5922C0 15.4742 0.035391 15.3799 0.106173 15.3091C0.200549 15.2147 0.306722 15.1675 0.424691 15.1675H3.68066C3.9166 15.1675 4.09356 15.2619 4.21153 15.4506L7.64445 21.5025C7.71523 21.5969 7.78601 21.5969 7.8568 21.5025L11.2189 15.4506Z" fill="white"/>
<path d="M21.0253 19.379C20.2939 19.379 19.6922 19.1431 19.2203 18.6712C18.7485 18.1993 18.5125 17.5977 18.5125 16.8663C18.5125 16.1349 18.7485 15.5332 19.2203 15.0613C19.6922 14.5895 20.2939 14.3535 21.0253 14.3535C21.7567 14.3535 22.3465 14.5895 22.7948 15.0613C23.2667 15.5332 23.5026 16.1349 23.5026 16.8663C23.5026 17.5977 23.2667 18.1993 22.7948 18.6712C22.3229 19.1431 21.7331 19.379 21.0253 19.379ZM19.4327 39.9412C19.3147 39.9412 19.2085 39.9058 19.1142 39.835C19.0434 39.7406 19.008 39.6345 19.008 39.5165V22.2811C19.008 22.1631 19.0434 22.0687 19.1142 21.998C19.2085 21.9036 19.3147 21.8564 19.4327 21.8564H22.6887C22.8066 21.8564 22.901 21.9036 22.9718 21.998C23.0662 22.0687 23.1133 22.1631 23.1133 22.2811V39.5165C23.1133 39.6345 23.0662 39.7406 22.9718 39.835C22.901 39.9058 22.8066 39.9412 22.6887 39.9412H19.4327Z" fill="white"/>
<path d="M26.7531 39.9412C26.6351 39.9412 26.5289 39.9058 26.4346 39.835C26.3638 39.7406 26.3284 39.6345 26.3284 39.5165V15.5922C26.3284 15.4742 26.3638 15.3799 26.4346 15.3091C26.5289 15.2147 26.6351 15.1675 26.7531 15.1675H30.0091C30.127 15.1675 30.2214 15.2147 30.2922 15.3091C30.3866 15.3799 30.4337 15.4742 30.4337 15.5922V39.5165C30.4337 39.6345 30.3866 39.7406 30.2922 39.835C30.2214 39.9058 30.127 39.9412 30.0091 39.9412H26.7531Z" fill="white"/>
<path d="M33.8036 39.9412C33.6857 39.9412 33.5795 39.9058 33.4851 39.835C33.4143 39.7406 33.3789 39.6345 33.3789 39.5165V15.5922C33.3789 15.4742 33.4143 15.3799 33.4851 15.3091C33.5795 15.2147 33.6857 15.1675 33.8036 15.1675H37.0596C37.1776 15.1675 37.2719 15.2147 37.3427 15.3091C37.4371 15.3799 37.4843 15.4742 37.4843 15.5922V39.5165C37.4843 39.6345 37.4371 39.7406 37.3427 39.835C37.2719 39.9058 37.1776 39.9412 37.0596 39.9412H33.8036Z" fill="white"/>
<path d="M42.6945 40.012C41.9631 40.012 41.3614 39.776 40.8896 39.3042C40.4177 38.8323 40.1817 38.2306 40.1817 37.4992C40.1817 36.7678 40.4177 36.1662 40.8896 35.6943C41.3614 35.2224 41.9631 34.9865 42.6945 34.9865C43.4259 34.9865 44.0158 35.2224 44.4641 35.6943C44.9359 36.1662 45.1719 36.7678 45.1719 37.4992C45.1719 38.2306 44.9359 38.8323 44.4641 39.3042C43.9922 39.776 43.4023 40.012 42.6945 40.012Z" fill="white"/>
<path fill-rule="evenodd" clip-rule="evenodd" d="M2.07703 2.02234H20.2781V10.1117H22.3004V2.02234V0H20.2781H2.07703H0.0546875V2.02234V10.1117H2.07703V2.02234ZM2.07703 44.4915H0.0546875V52.5809V54.6032H2.07703H20.2781H22.3004V52.5809V44.4915H20.2781V52.5809H2.07703V44.4915Z" fill="white"/>
</svg>
